<?xml version="1.0" encoding="utf-8"?>
<!-- Generator: Adobe Illustrator 16.0.3, SVG Export Plug-In . SVG Version: 6.00 Build 0)  -->
<!DOCTYPE svg PUBLIC "-//W3C//DTD SVG 1.1//EN" "http://www.w3.org/Graphics/SVG/1.1/DTD/svg11.dtd">
<svg version="1.1" id="Chakra-Silhouette" xmlns="http://www.w3.org/2000/svg" xmlns:xlink="http://www.w3.org/1999/xlink" x="0px"
	 y="0px" width="230px" height="570px" viewBox="0 0 230 570" enable-background="new 0 0 230 570" xml:space="preserve">
<path fill-rule="evenodd" clip-rule="evenodd" fill="#333333" d="M223.018,321.415c-0.86-1.203-1.419-2.493-1.481-3.991
	c-0.021-0.476,0.004-0.966-0.087-1.427c-0.198-0.965-0.36-1.964-0.726-2.864c-0.904-2.222-1.923-4.399-2.305-6.798
	c-0.117-0.706-0.477-1.229-0.975-1.731c-1.704-1.681-3.433-3.351-5.055-5.115c-1.573-1.7-3.068-3.463-4.513-5.271
	c-1.37-1.71-2.31-3.627-2.532-5.862c-0.158-1.504-0.318-3.033-0.681-4.493c-1.458-5.849-3.093-11.661-4.496-17.525
	c-1.026-4.313-1.491-8.727-1.637-13.179c-0.118-4.032-0.41-8.063-0.782-12.079c-0.235-2.462-0.792-4.891-1.152-7.335
	c-0.271-1.856-0.421-3.733-0.738-5.584c-0.608-3.726-1.818-7.292-3.15-10.807c-1.115-2.951-2.507-5.793-3.66-8.731
	c-0.822-2.114-1.646-4.266-2.137-6.475c-0.794-3.586-1.356-7.223-1.959-10.846c-0.433-2.641-0.911-5.289-1.124-7.952
	c-0.367-4.75-0.899-9.462-1.912-14.124c-0.735-3.351-0.894-6.718-0.086-10.107c0.42-1.785,0.727-3.599,1.083-5.404
	c0.742-3.902,1.167-7.848,0.977-11.805c-0.247-5.109-0.702-10.209-1.117-15.308c-0.139-1.648-0.619-3.242-1.565-4.612
	c-2.614-3.774-5.95-6.678-10.42-8.056c-4.412-1.367-8.557-3.324-12.493-5.736c-1.02-0.624-2.075-1.197-3.148-1.729
	c-5.727-2.846-11.496-5.62-17.193-8.517c-1.589-0.807-3.036-1.903-4.515-2.935c-1.479-1.041-2.086-2.477-2.059-4.33
	c0.063-4.408,0.371-8.774,1.109-13.123c0.326-1.85,1.372-2.888,3.004-3.495c0.725-0.273,1.416-0.607,1.823-1.278
	c1.496-2.477,2.818-5.022,3.064-7.983c0.077-0.876,0.095-1.791,0.383-2.605c0.922-2.683,0.21-5.564,1.064-8.243
	c0.012-0.033,0.001-0.076-0.007-0.115c-0.147-0.771-0.254-1.555-0.44-2.316c-0.47-1.791-0.461-2.145,0.257-3.829
	c0.366-0.178,0.762-0.294,1.054-0.524c0.306-0.231,0.51-0.578,0.808-0.925c-0.521-0.767,0.069-1.334,0.493-1.881
	c0.284-0.381,0.192-0.654-0.004-0.957c-0.108-0.156-0.308-0.252-0.471-0.391c0.265-0.239,0.445-0.391,0.705-0.625
	c-0.446-0.177-0.76-0.298-1.228-0.48c0.386-0.507,0.731-0.961,1.091-1.417c-0.226-0.713-0.454-1.435-0.733-2.349
	c0.137-0.161,0.442-0.47,0.235-1.046c-0.129-0.395,0.768-0.749,0.271-1.413c-1.101,0.362-0.861-0.851-1.382-1.253
	c-0.47-0.367-0.291-0.458-0.757-1.654c-0.311-0.789,0.055-1.405,0.057-1.863c-0.804-0.458-1.449-0.833-2.142-1.229
	c-0.099,0.072-0.258,0.188-0.415,0.306c-0.102-0.132-0.169-0.292-0.291-0.374c-0.216-0.163-0.491-0.255-0.718-0.417
	c-1.036-0.743-2.169-1.42-1.972-2.911c-0.538-0.459-1.029-0.88-1.647-1.409c-1.609-0.146-1.609-0.146-2.012-1.701
	c-0.206-0.072-0.521-0.09-0.603-0.222c0.004-0.155,0.023-0.307,0.023-0.463c0-9.391-7.609-17-17-17
	c-8.96,0-16.282,6.932-16.936,15.724c-0.152,0.065-0.305,0.132-0.457,0.191c0.26,0.492-0.181,0.462-0.425,0.606
	c-0.721,0.426-1.519,0.775-2.099,1.344c-0.512,0.496-0.995,0.72-1.823,0.498c0.242,0.253,0.34,0.364,0.369,0.395
	c-0.348,0.581-0.668,1.14-1.01,1.688c-0.081,0.13-0.19,0.304-0.314,0.327c-0.789,0.144-1.146,0.834-1.636,1.314
	c-0.931,0.919-1.807,1.901-2.635,2.915c-0.504,0.623-1.097,1.252-0.909,2.202c0.039,0.188-0.113,0.505-0.276,0.632
	c-0.865,0.644-1.052,1.659-1.419,2.562c-0.144,0.345-0.151,0.743-0.192,1.122c-0.159,1.239-0.144,2.529-0.495,3.712
	c-0.434,1.477-0.729,2.932-0.806,4.473c-0.094,2.028-0.102,4.002,0.551,5.961c0.298,0.889,0.254,1.896,0.576,2.771
	c0.449,1.221,0.93,2.402,0.813,3.737c-0.021,0.231,0.044,0.482,0.116,0.708c0.471,1.518,0.977,3.029,1.427,4.556
	c0.271,0.914,0.532,1.847,0.677,2.786c0.356,2.348,0.988,4.609,1.835,6.822c0.491,1.287,1.244,2.321,2.593,2.803
	c0.469,0.171,0.706,0.507,0.784,0.972c0.073,0.391,0.144,0.79,0.176,1.184c0.219,2.792,1.209,5.275,2.878,7.513
	c0.26,0.351,0.491,0.736,0.644,1.145c0.813,2.109,1.179,4.311,1.28,6.559c0.034,0.807-0.208,1.51-0.877,2.003
	c-0.805,0.586-1.575,1.245-2.447,1.714c-1.934,1.045-3.895,2.037-5.884,2.971c-3.002,1.415-6.02,2.783-9.051,4.133
	c-2.257,1.009-4.55,1.95-6.818,2.942c-1.099,0.478-2.151,1.08-3.281,1.467c-3.171,1.094-6.363,2.13-9.563,3.135
	c-2.277,0.718-4.376,1.707-6.255,3.202c-3.507,2.799-5.77,6.267-6.153,10.827c-0.085,1.074-0.227,2.145-0.324,3.219
	c-0.268,2.945-0.584,5.885-0.772,8.834c-0.253,4.082,0.072,8.14,0.791,12.174c0.375,2.081,0.804,4.187,0.825,6.286
	c0.037,3.594-0.199,7.187-0.375,10.781c-0.137,2.715-0.434,5.421-0.522,8.132c-0.195,5.476-0.477,10.938-1.254,16.368
	c-0.648,4.562-1.514,9.066-3.182,13.382c-0.873,2.271-1.892,4.502-2.642,6.815c-1.155,3.57-2.285,7.165-3.157,10.808
	c-0.573,2.393-0.707,4.899-0.961,7.355c-0.318,3.063-0.658,6.124-0.8,9.198c-0.191,3.949-0.227,7.905-0.261,11.86
	c-0.028,2.885-0.039,5.767-0.594,8.598c-0.646,3.294-1.353,6.579-2.123,9.839c-0.513,2.173-1.092,4.339-1.808,6.45
	c-0.884,2.59-1.469,5.238-1.667,7.948c-0.081,1.07-0.427,1.907-1.151,2.667c-2.058,2.162-4.368,3.972-7.019,5.362
	c-1.484,0.771-2.956,1.586-4.461,2.322c-1.131,0.56-2.009,1.361-2.412,2.549c-0.826,2.452-2.302,4.554-3.505,6.809
	c-0.445,0.832-0.786,1.737-1.063,2.656c-0.536,1.757-1.033,3.515-2.383,4.878c-0.164,0.16-0.294,0.379-0.409,0.591
	c-0.443,0.765-0.239,1.493,0.611,1.677c0.625,0.144,1.359,0.105,1.98-0.07c2.461-0.735,4.36-2.145,5.238-4.682
	c0.093-0.257,0.27-0.499,0.341-0.759c0.482-1.845,1.942-2.996,3.088-4.357c0.155-0.193,0.5-0.227,0.873-0.371
	c0.19,1.594,0.236,2.968-0.014,4.355c-0.188,1.06-0.435,2.132-0.436,3.198c-0.001,2.056-0.563,3.949-1.215,5.837
	c-0.251,0.72-0.539,1.429-0.766,2.146c-0.234,0.768-0.441,1.545-0.599,2.317c-0.274,1.334-0.498,2.667-0.751,4.006
	c-0.189,0.979-0.498,1.946-0.552,2.931c-0.07,1.146-0.032,2.326,0.159,3.455c0.185,1.087,1.146,1.643,2.239,1.56
	c0.837-0.064,1.464-0.505,1.75-1.265c0.464-1.231,0.849-2.484,1.222-3.748c0.427-1.409,0.753-3.178,1.157-4.262
	c0.247-0.736,1.751-4.208,1.993-6.298c0.14-1.242,0.297-1.469,0.578-1.397c0.339,0.073-0.327,1.599-0.777,3.41
	c-0.431,1.77-1.385,2.81-1.315,4.115c0.056,0.983-0.274,2.63-0.602,4.119c-0.45,1.979-0.814,3.979-1.138,5.986
	c-0.099,0.609-0.022,1.289,0.133,1.895c0.263,1.016,1.192,1.652,2.237,1.688c1.011,0.035,1.762-0.506,2.153-1.576
	c0.108-0.305,0.146-0.621,0.225-0.938c0.73-2.941,1.314-5.931,2.252-8.815c0.716-2.224,1.339-4.431,1.577-6.74
	c0.037-0.355,0.12-0.733,0.312-1.011c0.258-0.393,0.695-0.569,1.157-0.381c0.416,0.18,0.378,0.574,0.306,0.937
	c-0.122,0.627-0.237,1.258-0.396,1.878c-0.336,1.292-0.526,2.563-0.311,3.913c0.112,0.727,0.059,1.518-0.04,2.255
	c-0.206,1.55-0.503,3.084-0.75,4.621c-0.17,1.025-0.375,2.048-0.452,3.079c-0.112,1.599,1.276,2.788,2.784,2.423
	c1.04-0.238,1.637-0.957,1.865-1.973c0.273-1.212,0.549-2.412,0.761-3.635c0.353-2.004,0.558-4.038,1.002-6.031
	c0.329-1.455,0.542-2.89,0.491-4.389c-0.022-0.752-0.006-1.517,0-2.27c0.001-0.285-0.003-0.565,0.051-0.842
	c0.106-0.509,0.594-0.842,1.152-0.85c0.604-0.008,0.717,0.392,0.747,0.867c0.067,1.089,0.343,2.112,0.769,3.119
	c0.227,0.536,0.268,1.165,0.331,1.757c0.183,1.793,0.32,3.578,0.511,5.368c0.115,1.032,0.661,1.683,1.448,1.859
	c1.09,0.231,1.996-0.379,2.281-1.575c0.461-1.964,0.707-3.919,0.374-5.938c-0.377-2.285-0.352-4.62-0.884-6.885
	c-0.189-0.827-0.085-1.77,0.104-2.619c0.619-2.84,1.346-5.671,2.021-8.512c0.585-2.44,1.358-4.844,1.472-7.392
	c0.058-1.433,0.084-2.868,0.147-4.313c0.095-2.159,0.379-4.252,1.147-6.323c1.191-3.215,2.206-6.501,3.139-9.807
	c1.117-3.959,2.059-7.968,3.087-11.954c2.292-8.872,4.956-17.623,8.272-26.166c1.499-3.849,2.836-7.729,3.441-11.835
	c0.198-1.342,0.518-2.665,0.744-4.003c0.191-1.134,0.34-2.282,0.491-3.429c0.074-0.554,0.045-1.125,0.143-1.667
	c0.337-1.8,0.313-3.574-0.155-5.345c-0.424-1.599-0.6-3.237-0.415-4.875c0.297-2.616,0.667-5.233,1.063-7.837
	c0.494-3.24,1.119-6.459,1.548-9.7c0.537-4.102,0.926-8.223,1.385-12.345c0.058,0.065,0.137,0.105,0.159,0.171
	c1.25,3.686,2.12,7.458,2.318,11.359c0.201,3.957,0.605,7.886,1.332,11.78c0.957,5.105,1.193,10.235,0.558,15.4
	c-0.723,5.909-1.469,11.81-2.159,17.724c-0.41,3.555-0.359,7.111,0.373,10.622c0.237,1.137,0.106,2.197-0.174,3.305
	c-0.443,1.74-0.846,3.491-1.111,5.261c-0.429,2.852-0.869,5.688-1.694,8.458c-2.251,7.545-3.283,15.293-3.832,23.13
	c-0.175,2.552-0.413,5.106-0.844,7.616c-0.834,4.844-1.597,8.721-2.085,14.584c-0.764,9.27-0.764,14.576,0.131,24.508
	c0.52,5.791,0.294,10.551,1.237,19.24c0.949,8.688,2.594,18.712,3.137,21.857c0.545,3.146,1.03,5.079,1.112,7.696
	c0.03,0.872,0.189,1.737,0.238,2.62c0.147,2.297,0.332,4.608,0.375,6.921c0.04,2.147-0.095,4.298-0.137,6.447
	c-0.03,1.554-0.024,3.108-0.066,4.662c-0.082,3.112-0.189,6.224-0.269,9.336c-0.018,0.64-0.015,1.279,0.015,1.919
	c0.137,3.11,0.271,6.224-0.394,9.298c-0.604,2.812-1.212,5.622-1.84,8.426c-0.702,3.155-1.453,6.299-2.14,9.456
	c-0.905,4.176-1.426,8.41-1.715,12.672c-0.08,1.15-0.021,2.312-0.05,3.468c-0.03,1.186-0.139,2.387-0.125,3.586
	c0.068,6.198,0.78,12.355,1.677,18.474c0.375,2.561,0.956,5.111,1.54,7.637c1.215,5.254,2.395,10.518,3.758,15.732
	c1.796,6.894,3.48,13.801,4.518,20.846c0.31,2.103,0.558,4.211,0.285,6.336c-0.244,1.898-0.609,3.779-0.82,5.689
	c-0.243,2.18-0.366,4.375-0.562,6.553c-0.101,1.177-0.395,2.336-1.42,3.043c-1.018,0.694-2.129,1.229-3.209,1.813
	c-0.208,0.109-0.468,0.19-0.692,0.171c-1.641-0.142-2.634,0.688-3.266,2.104c-0.142,0.33-0.359,0.623-0.521,0.945
	c-0.518,1.061-0.792,2.174-0.685,3.365c0.107,1.219,0.545,2.237,1.67,2.885c0.445,0.248,0.85,0.591,1.245,0.928
	c1.343,1.149,2.746,2.216,4.38,2.904c0.776,0.335,1.168,0.868,1.389,1.648c0.66,2.325,2.254,3.689,4.533,4.34
	c3.054,0.877,6.149,0.909,9.274,0.57c1.564-0.165,3.083-0.494,4.398-1.409c0.381-0.272,0.8-0.615,0.963-1.019
	c0.419-1.076,0.703-2.188,0.541-3.395c-0.143-1.063-0.27-2.165-0.164-3.222c0.176-1.695,0.374-3.39,1.292-4.935
	c0.848-1.409,1.186-2.973,0.625-4.604c-0.468-1.364-0.513-2.732-0.106-4.112c0.079-0.273,0.093-0.553,0.129-0.838
	c0.287-2.263,0.699-4.494,1.628-6.604c0.379-0.882,0.497-1.809,0.265-2.703c-0.59-2.284-1.014-4.652-1.955-6.788
	c-2.354-5.365-2.869-10.94-2.294-16.653c0.247-2.466,0.858-4.878,1.305-7.32c0.36-2.003,0.708-4.01,1.085-6.009
	c0.56-2.99,1.015-5.993,1.738-8.942c0.651-2.634,1.618-5.182,2.414-7.777c0.646-2.099,1.375-4.182,1.814-6.324
	c0.43-2.063,0.571-4.188,0.772-6.292c0.395-4.08,0.29-8.131-0.264-12.194c-0.351-2.611-0.549-5.241-0.742-7.865
	c-0.108-1.553-0.019-3.118-0.099-4.673c-0.18-3.196,0.234-6.312,1.333-9.312c1.786-4.864,3.745-9.678,5.464-14.576
	c0.846-2.407,1.574-4.898,1.905-7.405c0.401-3.087,0.414-6.222,0.45-9.333c0.059-5.108-0.051-10.231,0.003-15.342
	c0.036-3.518,0.048-7.047,0.393-10.533c0.384-3.936,1.15-7.832,1.719-11.736c0.701-4.823,1.363-9.651,2.038-14.479
	c0.467-3.366,0.926-6.734,1.387-10.089c0.335-2.501,0.826-4.982,0.963-7.484c0.224-4.226,0.417-8.712,0.368-13.373
	c1.645,0.118,3.209,0.215,4.907,0.335c-0.112,3.986,0.109,8.72,0.291,12.513c0.299,6.543,1.403,13.01,2.258,19.504
	c0.486,3.682,1.035,7.355,1.536,11.035c0.424,3.054,0.809,6.099,1.2,9.145c0.157,1.189,0.391,2.379,0.41,3.573
	c0.108,6.14,0.195,12.295,0.212,18.437c0.011,4.193-0.352,8.367-0.75,12.555c-0.281,3.104-0.278,6.229,0.335,9.313
	c0.52,2.637,1.426,5.16,2.475,7.627c1.774,4.146,3.671,8.239,5.561,12.35c0.821,1.793,1.449,3.638,1.405,5.637
	c-0.066,3.109-0.104,6.222-0.271,9.34c-0.17,2.942-0.489,5.888-0.766,8.827c-0.132,1.384-0.371,2.778-0.428,4.166
	c-0.108,2.646,0.248,5.273,0.866,7.837c0.817,3.372,1.77,6.716,2.783,10.037c1.195,3.892,2.099,7.857,2.776,11.873
	c0.292,1.773,0.488,3.575,0.901,5.316c1.18,4.939,1.787,9.979,2.52,14.987c0.19,1.257,0.068,2.465-0.179,3.678
	c-0.148,0.702-0.258,1.419-0.388,2.123c-0.668,3.781-1.424,7.535-3.249,10.979c-1.194,2.237-1.367,4.561-0.61,6.972
	c0.779,2.508,0.517,5.151,0.945,7.71c0.025,0.148-0.064,0.319-0.059,0.479c0.066,1.659,0.128,3.322,0.223,4.987
	c0.015,0.275,0.176,0.524,0.264,0.798c0.49,1.512,1.045,3.009,1.431,4.545c0.183,0.714,0.066,1.505,0.015,2.26
	c-0.062,1.074-0.311,2.146-0.292,3.218c0.034,1.955,0.875,3.458,2.835,4.153c0.486,0.18,0.969,0.38,1.471,0.489
	c3.744,0.822,7.468,0.583,11.166-0.298c2.425-0.583,4.2-1.916,4.829-4.459c0.217-0.861,0.799-1.331,1.566-1.679
	c2.396-1.065,4.514-2.555,6.365-4.406c0.377-0.395,0.734-0.866,0.923-1.361c0.47-1.207,0.41-2.43-0.108-3.616
	c-0.328-0.738-0.681-1.444-1.05-2.161c-0.501-0.997-1.3-1.592-2.415-1.755c-0.351-0.053-0.715-0.1-1.062-0.164
	c-0.224-0.038-0.515-0.052-0.631-0.197c-0.643-0.808-1.506-0.97-2.448-1.042c-1.208-0.092-1.942-1.149-1.76-2.33
	c0.152-0.979,0.242-1.977,0.242-2.967c0.001-1.991-0.568-3.884-1.182-5.732c-0.722-2.17-0.951-4.376-0.769-6.623
	c0.438-5.14,1.235-10.238,2.491-15.253c0.697-2.826,1.44-5.655,2.033-8.512c0.799-3.864,1.491-7.765,2.217-11.661
	c1.012-5.449,2.06-10.902,2.987-16.377c0.51-2.983,0.976-6.006,1.173-9.023c0.506-7.938-0.315-15.797-1.797-23.601
	c-0.354-1.876-0.739-3.758-1.156-5.622c-0.297-1.41-0.667-2.789-0.981-4.188c-0.453-2.075-0.764-4.175-1.328-6.205
	c-1.014-3.655-1.502-7.343-1.303-11.137c0.154-2.874,0.271-5.738,0.262-8.613c-0.01-2.591-0.298-5.18-0.312-7.771
	c-0.022-4.437,0.06-8.874,0.128-13.297c0.025-1.71,0.162-3.396,0.516-5.094c0.634-2.997,1.047-6.043,1.521-9.083
	c0.369-2.355,0.696-4.732,1.044-7.093c0.354-2.331,0.736-4.657,1.043-6.982c0.407-3.015,0.745-6.024,1.107-9.029
	c0.024-0.202,0.04-0.405,0.053-0.598c0.136-2.04,0.251-4.069,0.398-6.094c0.209-2.625,0.524-5.242,0.647-7.87
	c0.243-5.184,0.462-10.382,0.517-15.569c0.037-3.59-0.082-7.208-0.379-10.783c-0.432-5.129-1.161-10.244-1.65-15.369
	c-0.433-4.574-0.892-9.158-1.024-13.74c-0.14-4.836-0.91-9.531-2.147-14.181c-0.828-3.091-1.537-6.204-2.239-9.319
	c-0.46-2.068-0.751-4.169-1.232-6.228c-0.292-1.292-0.516-2.571-0.527-3.902c-0.039-4.525-0.457-9.024-1.107-13.493
	c-0.55-3.872-1.313-7.722-1.813-11.6c-0.395-3.091-0.753-6.209-0.74-9.314c0.016-3.505,0.385-7.022,0.745-10.518
	c0.463-4.452,0.879-8.908,1.071-13.381c0.064-1.461,0.267-2.919,0.412-4.38c0.695,2.665,1.258,5.308,1.758,7.961
	c1.057,5.612,1.9,11.253,3.462,16.775c1.015,3.582,1.474,7.271,0.692,11.024c-0.429,2.092-0.36,4.204,0.277,6.286
	c0.246,0.786,0.193,1.662,0.318,2.49c0.154,1.023,0.28,2.052,0.527,3.054c0.521,2.174,1.18,4.317,1.646,6.501
	c0.373,1.764,0.792,3.504,1.513,5.16c1.224,2.829,2.462,5.641,3.612,8.499c1.029,2.555,1.881,5.186,2.927,7.74
	c3.007,7.333,5.315,14.894,7.4,22.534c0.748,2.766,1.904,5.42,2.898,8.115c0.785,2.091,1.641,4.17,2.375,6.282
	c0.244,0.683,0.264,1.483,0.252,2.219c-0.068,2.403-0.289,4.792-0.286,7.193c0.002,1.42,0.163,2.887,0.5,4.267
	c0.844,3.376,1.847,6.696,2.736,10.06c0.229,0.844,0.452,1.738,0.39,2.584c-0.213,3.104-0.512,6.218-0.873,9.31
	c-0.188,1.551,0.076,3.024,0.434,4.492c0.242,0.97,1.093,1.515,1.96,1.447c0.827-0.063,1.522-0.671,1.674-1.626
	c0.322-1.898,0.551-3.798,0.858-5.697c0.108-0.734,0.26-1.488,0.518-2.191c0.318-0.91,0.672-1.788,0.634-2.776
	c-0.004-0.179,0.09-0.364,0.142-0.539c0.624,0.014,0.885,0.306,0.854,0.828c-0.029,0.519-0.142,1.03-0.156,1.548
	c-0.029,0.992-0.109,2.005,0,2.99c0.228,2.145,0.554,4.277,0.855,6.411c0.192,1.298,0.372,2.614,0.653,3.892
	c0.295,1.287,1.428,2.007,2.704,1.832c1.337-0.184,2.019-0.947,1.924-2.405c-0.113-1.985-0.383-3.965-0.543-5.951
	c-0.072-1.069-0.054-2.146-0.076-3.222c-0.019-0.797,0.001-1.586-0.055-2.382c-0.059-0.845-0.186-1.697-0.289-2.593
	c1.064,0.236,1.172,0.279,1.197,1.17c0.063,2.103,0.601,4.083,1.251,6.066c0.428,1.328,0.673,2.71,0.909,4.093
	c0.235,1.412,0.373,2.844,0.513,4.284c0.208,2.145,2.558,2.508,3.802,1.511c0.706-0.567,1.08-1.308,1.103-2.176
	c0.034-1.394,0.104-2.81-0.042-4.189c-0.22-2.06-0.584-4.114-0.917-6.161c-0.093-0.547-0.306-1.076-0.476-1.608
	c-0.338-1.105-0.699-2.205-1.034-3.305c-0.061-0.231-0.011-0.506-0.011-0.748l0.261-0.066c0.136,0.3,0.285,0.595,0.39,0.899
	c1.143,3.542,2.412,7.031,2.901,10.746c0.115,0.859,0.486,1.693,0.851,2.49c0.507,1.094,1.39,1.563,2.397,1.434
	c1.043-0.134,1.792-0.881,2.009-2.079c0.268-1.55,0.225-3.097-0.121-4.652c-0.289-1.319-0.526-2.666-0.798-3.988
	c-0.225-1.049-0.443-2.101-0.707-3.136c-0.423-1.623-0.9-3.232-1.345-4.851c-0.071-0.302-0.064-0.614-0.098-0.916
	c0.229,0.262,0.357,0.561,0.399,0.858c0.371,2.789,2.301,4.377,4.475,5.746c0.35,0.229,0.818,0.326,1.243,0.361
	c0.716,0.044,1.372-0.161,1.751-0.826C223.705,322.351,223.332,321.86,223.018,321.415z"/>
<circle fill-rule="evenodd" clip-rule="evenodd" fill="#9900FF" cx="115" cy="22.5" r="13.5"/>
<circle fill-rule="evenodd" clip-rule="evenodd" fill="#660099" cx="115" cy="52" r="13.5"/>
<circle fill-rule="evenodd" clip-rule="evenodd" fill="#0000FF" cx="115" cy="95" r="13.5"/>
<circle fill-rule="evenodd" clip-rule="evenodd" fill="#00FF00" cx="115" cy="158.5" r="20.5"/>
<circle fill-rule="evenodd" clip-rule="evenodd" fill="#FFFF00" cx="115" cy="203.5" r="20.5"/>
<circle fill-rule="evenodd" clip-rule="evenodd" fill="#FF9900" cx="115" cy="248.5" r="20.5"/>
<circle fill-rule="evenodd" clip-rule="evenodd" fill="#FF0000" cx="115" cy="293.5" r="20.5"/>
</svg>
